<svg xmlns="http://www.w3.org/2000/svg" width="30" height="30" viewBox="0 0 25 24"><path fill="#E8E4DA" d="M5.53 23.4L5.34 23.46L5.15 23.51L4.95 23.55L4.75 23.58L4.36 23.62L3.96 23.64H3.56H3.16L2.37 23.62C2.29 23.62 2.2 23.62 2.1 23.61C2 23.61 1.88 23.59 1.76 23.58C1.52 23.55 1.26 23.52 1.01 23.49C0.76 23.46 0.53 23.42 0.35 23.4C0.17 23.37 0.04 23.35 0 23.34L1.14 22.2C1.14 22.2 1.25 22.21 1.37 22.23C1.49 22.24 1.65 22.25 1.84 22.27C2.22 22.3 2.7 22.33 3.21 22.37C3.71 22.4 4.23 22.42 4.67 22.45C4.89 22.45 5.09 22.46 5.25 22.47C5.33 22.47 5.41 22.47 5.47 22.47C5.53 22.47 5.59 22.47 5.63 22.47C5.8 22.46 6.89 22.38 8.14 22.29C8.77 22.25 9.43 22.22 10.05 22.18C10.36 22.17 10.65 22.16 10.92 22.15C11.19 22.15 11.43 22.15 11.64 22.15H11.94L12.24 22.19L12.53 22.23L12.82 22.28L13.4 22.4L13.69 22.45L13.99 22.49C14.29 22.52 14.59 22.56 14.88 22.59L15.32 22.63L15.76 22.66L16.2 22.68H16.64L17.09 22.66L17.54 22.62C17.69 22.6 17.84 22.58 18 22.56C18.16 22.53 18.32 22.5 18.48 22.47C18.64 22.43 18.81 22.4 18.98 22.36C19.15 22.32 19.32 22.28 19.49 22.23L20 22.08L20.5 21.92C20.67 21.86 20.83 21.8 20.99 21.75C21.15 21.69 21.31 21.63 21.46 21.57C21.61 21.5 21.76 21.44 21.9 21.38C22.04 21.31 22.18 21.24 22.31 21.18C22.44 21.11 22.56 21.04 22.68 20.98L22.85 20.88L23 20.78L23.14 20.68L23.26 20.58L23.37 20.48L23.46 20.38L23.53 20.28L23.56 20.23L23.59 20.18L23.61 20.13L23.63 20.08V20.03L23.65 19.98L23.74 18.65L23.82 17.32L23.84 16.65V16.32L23.83 15.99L23.81 15.66L23.78 15.33L23.74 15L23.68 14.67L23.51 14.32L23.36 13.97L23.23 13.61L23.12 13.25L23.03 12.88L22.95 12.51L22.89 12.14L22.85 11.76L22.82 11.38V11V10.62L22.84 10.23L22.87 9.84L22.92 9.45L22.98 9.06L23.05 8.67L23.17 8.1L23.31 7.54C23.4 7.17 23.49 6.8 23.58 6.43L23.7 5.88L23.75 5.6L23.79 5.32L23.82 5.04L23.84 4.76V4.48L23.85 4.19L23.83 3.67L23.81 3.41L23.78 3.15L23.74 2.89L23.69 2.63L23.62 2.37L23.54 2.12V2.1L23.52 2.08L23.49 2.06L23.46 2.04C23.46 2.04 23.4 2.02 23.37 2.01C23.34 2.01 23.3 1.99 23.25 1.98C23.21 1.98 23.16 1.96 23.11 1.95C23.06 1.95 23 1.93 22.94 1.93C22.82 1.92 22.69 1.9 22.54 1.89C22.39 1.88 22.24 1.87 22.07 1.85C21.9 1.85 21.72 1.83 21.54 1.82C21.17 1.81 20.77 1.79 20.36 1.77C19.95 1.77 19.53 1.75 19.12 1.75C18.71 1.75 18.31 1.75 17.94 1.75C17.57 1.75 17.23 1.75 16.95 1.76C16.66 1.76 16.43 1.78 16.26 1.78C16.21 1.78 16.16 1.76 16.09 1.75C16.03 1.75 15.96 1.74 15.88 1.73C15.73 1.72 15.55 1.71 15.34 1.69C15.14 1.69 14.91 1.67 14.66 1.66C14.41 1.66 14.14 1.65 13.86 1.64C13.29 1.64 12.66 1.64 11.99 1.63C11.32 1.63 10.62 1.64 9.9 1.65C9.19 1.66 8.47 1.68 7.78 1.69C7.09 1.71 6.41 1.73 5.79 1.75C5.17 1.78 4.6 1.8 4.12 1.83C3.88 1.85 3.66 1.86 3.46 1.87C3.26 1.89 3.09 1.9 2.94 1.91H2.85H2.76L2.67 1.89L2.59 1.87L2.51 1.84L2.43 1.8L2.36 1.75L2.29 1.7L2.22 1.64L2.16 1.58L2.1 1.52L2.05 1.45L2 1.38L1.96 1.31L1.93 1.24L1.91 1.17C1.9 1.31 1.89 1.48 1.87 1.66C1.87 1.85 1.85 2.06 1.84 2.29C1.84 2.75 1.82 3.29 1.81 3.89C1.81 4.49 1.81 5.14 1.81 5.82C1.81 6.5 1.83 7.22 1.84 7.95C1.86 8.68 1.88 9.42 1.89 10.14C1.92 10.87 1.94 11.58 1.97 12.26C2 12.94 2.04 13.58 2.07 14.17C2.11 14.75 2.15 15.28 2.18 15.73L2.22 16.08L2.28 16.42L2.36 16.76L2.45 17.09L2.56 17.42L2.67 17.75L2.91 18.41V18.44L2.94 18.47L2.97 18.5L3 18.54C3 18.54 3.05 18.59 3.08 18.62C3.11 18.65 3.15 18.68 3.19 18.71C3.23 18.74 3.27 18.77 3.31 18.8C3.35 18.83 3.4 18.86 3.45 18.9L3.6 19L3.76 19.1L3.93 19.19L4.1 19.28L4.27 19.36L4.44 19.43C4.5 19.45 4.55 19.47 4.61 19.48C4.67 19.49 4.72 19.51 4.77 19.52H4.85L4.92 19.54H4.99H5.06C5.95 19.45 6.83 19.36 7.71 19.27L8.37 19.22L9.03 19.19H9.69H10.02L10.35 19.21L11.07 19.27L11.78 19.35L13.2 19.52L13.91 19.58L14.27 19.6H14.63H14.99L15.35 19.58L15.72 19.54L16.09 19.48C16.31 19.44 16.55 19.4 16.79 19.36C17.03 19.33 17.28 19.29 17.53 19.26C17.78 19.23 18.03 19.2 18.28 19.17C18.53 19.15 18.77 19.12 19 19.1C19.23 19.08 19.46 19.07 19.66 19.05C19.87 19.05 20.06 19.04 20.23 19.03C20.31 19.03 20.39 19.03 20.47 19.03C20.54 19.03 20.61 19.03 20.67 19.04C20.73 19.04 20.78 19.05 20.83 19.06C20.85 19.06 20.87 19.06 20.89 19.07C20.91 19.07 20.93 19.08 20.94 19.09L20.85 18.93L20.77 18.76L20.69 18.59L20.62 18.42L20.56 18.25L20.5 18.07L20.4 17.71L20.33 17.35L20.28 16.98L20.25 16.61V16.24L20.23 14.97V13.7L20.27 12.43L20.32 11.16L20.39 9.89L20.49 8.62L20.61 7.34C20.66 6.91 20.71 6.48 20.76 6.05C20.78 5.93 20.8 5.79 20.82 5.64L20.84 5.41V5.3V5.19V5.08L20.81 4.98V4.93L20.78 4.89L20.76 4.85L20.74 4.81L20.71 4.77L20.68 4.74L20.65 4.71L20.61 4.68L20.57 4.66L20.52 4.64H20.47L20.42 4.62H20.37H20.32H20.22L20.11 4.65L20 4.68L19.78 4.74L19.67 4.76H19.56L18.62 4.88L17.68 4.99L17.21 5.04L16.74 5.07H16.27H16.03H15.79L15.18 5.01L14.58 4.94L13.38 4.76L12.78 4.67L12.18 4.59L11.58 4.53L11.28 4.51H10.98L10.22 4.48L9.46 4.44L7.95 4.34L7.19 4.3L6.44 4.28H5.69L5.31 4.29L4.93 4.31L4.96 5.64L4.99 6.53V7.41V9.18V10.95V11.83L5.02 12.71C5.08 13.75 5.13 14.78 5.19 15.83V15.85V15.87L5.22 15.89L5.24 15.91C5.24 15.91 5.28 15.94 5.3 15.95C5.32 15.96 5.35 15.98 5.38 15.99C5.41 16 5.44 16.02 5.48 16.04C5.52 16.06 5.55 16.07 5.6 16.09C5.68 16.12 5.78 16.16 5.88 16.19C5.98 16.22 6.1 16.26 6.22 16.3C6.34 16.34 6.47 16.37 6.6 16.41C6.87 16.48 7.16 16.56 7.47 16.64C7.78 16.71 8.1 16.78 8.41 16.85C8.73 16.91 9.04 16.97 9.34 17.03C9.49 17.05 9.64 17.08 9.78 17.1C9.92 17.12 10.06 17.13 10.19 17.15C10.32 17.16 10.44 17.17 10.56 17.18C10.67 17.18 10.78 17.18 10.88 17.18L11.41 17.16L11.94 17.12L12.99 17L14.04 16.86L14.57 16.8L15.1 16.75C15.16 16.75 15.22 16.75 15.29 16.74C15.36 16.74 15.43 16.74 15.5 16.74C15.57 16.74 15.65 16.74 15.73 16.74C15.81 16.74 15.89 16.75 15.97 16.76C16.13 16.78 16.31 16.8 16.48 16.82C16.65 16.85 16.82 16.88 16.99 16.9C17.16 16.94 17.32 16.97 17.47 17C17.55 17.02 17.62 17.04 17.69 17.06C17.76 17.08 17.83 17.1 17.89 17.12C17.95 17.14 18.01 17.16 18.07 17.18C18.12 17.2 18.17 17.22 18.22 17.24L18.28 17.27L18.33 17.3L18.38 17.33L18.42 17.36L18.37 16.92L18.34 16.48V16.04L18.33 15.6L18.35 15.16L18.37 14.72L18.44 13.83L18.49 13.14L18.52 12.46V11.78V11.1L18.5 10.42L18.46 9.74L18.39 9.05L18.3 8.36L18.28 8.26L18.25 8.16L18.21 8.07L18.17 7.98L18.07 7.8L17.96 7.62C17.8 7.62 17.64 7.64 17.48 7.65C17.31 7.65 17.14 7.65 16.97 7.66C16.8 7.66 16.62 7.66 16.44 7.66C16.26 7.66 16.07 7.66 15.89 7.65C15.52 7.63 15.13 7.61 14.74 7.6C14.35 7.57 13.96 7.54 13.56 7.51C11.98 7.36 10.4 7.21 9.16 7.1H9.1H9.05H9L8.95 7.13L8.9 7.16L8.85 7.19L8.81 7.23L8.77 7.28L8.73 7.33L8.69 7.39L8.66 7.45L8.63 7.52C8.63 7.52 8.59 7.62 8.57 7.67C8.55 7.72 8.54 7.78 8.52 7.84C8.51 7.9 8.49 7.96 8.48 8.03C8.47 8.1 8.46 8.16 8.44 8.23C8.43 8.3 8.42 8.37 8.41 8.45C8.41 8.52 8.39 8.6 8.39 8.68C8.38 8.84 8.37 9 8.36 9.17C8.36 9.34 8.36 9.52 8.36 9.7C8.36 9.88 8.36 10.06 8.37 10.25L8.4 10.81L8.44 11.37C8.46 11.55 8.48 11.74 8.49 11.91C8.51 12.09 8.53 12.26 8.55 12.43C8.58 12.6 8.6 12.76 8.62 12.91C8.65 13.06 8.67 13.2 8.7 13.34C8.73 13.47 8.76 13.6 8.78 13.71C8.78 13.71 8.8 13.71 8.82 13.71C8.85 13.71 8.9 13.71 8.96 13.71C9.08 13.71 9.25 13.71 9.47 13.71C9.9 13.7 10.5 13.68 11.19 13.65C11.88 13.62 12.66 13.58 13.44 13.54C14.22 13.49 15.01 13.45 15.73 13.4L15.71 13.16V12.92L15.69 12.67V12.42L15.73 11.93L15.79 11.43L15.92 10.44L15.98 9.95L16.02 9.46L15.62 9.44H15.22H14.82L14.42 9.46L12.45 9.6L11.47 9.65L10.49 9.69L10.4 10.25L10.33 10.81L10.31 11.09L10.29 11.37V11.65V11.93L10.49 11.9L10.69 11.87L11.08 11.84H11.47L11.86 11.83L13.44 11.88C13.46 11.73 13.48 11.59 13.49 11.47C13.5 11.35 13.51 11.25 13.51 11.19H13.23L12.95 11.16L12.38 11.12H12.1H11.96L11.82 11.14L11.68 11.16L11.55 11.19L11.42 11.24L11.29 11.3L12.42 10.16L12.55 10.1L12.68 10.05L12.81 10.02L12.95 10L13.09 9.98H13.23H13.51L14.08 10.02L14.36 10.04H14.64C14.64 10.04 14.64 10.09 14.62 10.12C14.61 10.15 14.6 10.19 14.58 10.23C14.55 10.32 14.5 10.43 14.45 10.56C14.4 10.69 14.34 10.83 14.27 10.99C14.2 11.14 14.13 11.31 14.06 11.47C13.98 11.63 13.91 11.8 13.83 11.96C13.75 12.12 13.68 12.27 13.61 12.41C13.54 12.55 13.47 12.67 13.41 12.77C13.38 12.82 13.35 12.86 13.33 12.9L13.29 12.95L13.26 12.99H13L12.74 13.01H12.22L11.18 12.96L10.66 12.94H10.14L9.88 12.95L9.62 12.97L9.36 13L9.1 13.04V12.83V12.62L9.12 12.21L9.16 11.8L9.22 11.39L9.35 10.58L9.41 10.17L9.46 9.76C9.85 9.35 10.25 8.95 10.65 8.53H11.05H11.45L12.26 8.5L13.87 8.39L14.68 8.33L15.49 8.28L16.3 8.26H16.7L17.1 8.27L17.04 8.88L16.96 9.49L16.88 10.1L16.81 10.71L16.79 11.02L16.77 11.33V11.64V11.94L16.8 12.24L16.84 12.54L16.9 12.84L16.94 12.99L16.99 13.14L16.91 13.23H16.97L15.93 14.36L14.91 14.42L13.89 14.46L11.86 14.51L10.84 14.56L9.82 14.64L9.31 14.7L8.79 14.77L8.27 14.86L7.75 14.96H7.74C7.74 14.96 7.74 14.95 7.73 14.95L7.7 14.93L7.67 14.9L7.64 14.87L7.62 14.83L7.6 14.79V14.76C7.55 14.59 7.51 14.42 7.48 14.26L7.39 13.76L7.31 13.26L7.24 12.76C7.2 12.43 7.16 12.1 7.12 11.76C7.08 11.43 7.03 11.09 6.99 10.75C6.99 10.72 6.99 10.69 6.99 10.64C6.99 10.59 6.99 10.54 6.99 10.47C6.99 10.34 6.99 10.18 6.99 10C6.99 9.64 6.99 9.19 6.99 8.74C6.99 8.29 6.99 7.85 7 7.48C7 7.3 7 7.14 7 7.01C7 6.88 7 6.79 7 6.74V6.7V6.67V6.64L7.02 6.61L7.04 6.58L7.06 6.55L7.09 6.52L7.12 6.49L7.16 6.46L7.2 6.43C7.2 6.43 7.26 6.4 7.29 6.38C7.32 6.37 7.36 6.35 7.4 6.33C7.44 6.32 7.48 6.3 7.52 6.29C7.56 6.28 7.61 6.26 7.66 6.25L7.81 6.21C7.91 6.19 8.02 6.17 8.14 6.15C8.26 6.13 8.38 6.12 8.5 6.1C8.62 6.09 8.75 6.07 8.88 6.06C9.01 6.05 9.15 6.04 9.28 6.03L9.69 6.01C9.96 6.01 10.24 6 10.5 5.99C10.76 5.99 11.01 5.99 11.23 6C11.45 6.01 11.66 6.02 11.82 6.03L13.64 6.21L15.45 6.37L16.35 6.42L17.25 6.45H17.7H18.15L18.6 6.43L19.05 6.4C19.05 6.4 19.05 6.42 19.06 6.43C19.06 6.44 19.06 6.46 19.08 6.48C19.08 6.52 19.1 6.58 19.12 6.65C19.14 6.79 19.17 6.97 19.2 7.18C19.23 7.4 19.26 7.65 19.29 7.93C19.32 8.21 19.35 8.51 19.38 8.82C19.41 9.13 19.43 9.45 19.46 9.78C19.48 10.1 19.5 10.43 19.52 10.74C19.53 11.05 19.54 11.35 19.55 11.63C19.55 11.77 19.55 11.9 19.55 12.03C19.55 12.16 19.55 12.27 19.55 12.38C19.55 12.46 19.54 12.55 19.53 12.64C19.52 12.74 19.51 12.84 19.5 12.95C19.47 13.17 19.44 13.4 19.4 13.66C19.36 13.91 19.31 14.18 19.26 14.45C19.21 14.72 19.15 14.99 19.09 15.26C19.03 15.53 18.97 15.78 18.91 16.03C18.84 16.27 18.78 16.5 18.73 16.7C18.7 16.8 18.67 16.89 18.64 16.98C18.61 17.06 18.58 17.14 18.55 17.21C18.54 17.24 18.52 17.28 18.51 17.31C18.5 17.34 18.48 17.37 18.47 17.39C18.46 17.41 18.44 17.44 18.43 17.45C18.42 17.47 18.4 17.48 18.39 17.5H17.69H17.34L17.16 17.52L16.98 17.54C16.73 17.58 16.49 17.61 16.25 17.65C16.01 17.68 15.77 17.71 15.52 17.74L15.32 17.76H15.12L14.72 17.77H14.31L14.11 17.79L13.9 17.81C12.89 17.94 11.92 18.06 10.91 18.19L10.54 18.22L10.18 18.24H9.82L9.46 18.25H9.1L8.74 18.22L8.38 18.19L8.02 18.15L7.31 18.05L6.6 17.92L5.88 17.76L5.16 17.58H5.1L5.04 17.56H4.98H4.92H4.86L4.8 17.57H4.74L4.68 17.6L4.62 17.62L4.56 17.64L4.5 17.67L4.44 17.7L4.39 17.74L4.34 17.78L4.24 17.87L4.16 17.62L4.1 17.37L4.06 17.12L4.03 16.87L4.01 16.61V16.35L3.98 15.83V15.31L3.96 14.79L3.94 14.53L3.91 14.27L3.87 14.01L3.82 13.76V11.44L3.83 9.12V7.96L3.8 6.8L3.74 5.64L3.64 4.48C3.64 4.48 3.93 4.15 4.19 3.84C4.32 3.69 4.45 3.54 4.55 3.43C4.6 3.37 4.64 3.33 4.67 3.3C4.68 3.28 4.7 3.27 4.7 3.26L4.74 3.25H4.79C5.1 3.2 5.41 3.16 5.72 3.12L6.18 3.07L6.64 3.04L7.1 3.02H7.56L8.02 3.05L8.49 3.1C8.9 3.13 14.47 3.61 16.88 3.81H17.12L17.36 3.83H17.83L18.3 3.79L18.77 3.74L19.71 3.62L20.65 3.51L20.76 3.49L20.87 3.47L21.09 3.41L21.2 3.38L21.31 3.36H21.36H21.41H21.46H21.51H21.57L21.62 3.39L21.67 3.41L21.71 3.44L21.75 3.47L21.78 3.5L21.81 3.54L21.84 3.58L21.86 3.62L21.88 3.67L21.9 3.72V3.77L21.93 3.88V4V4.12V4.24L21.89 4.49C21.86 4.65 21.84 4.81 21.81 4.94C21.76 5.32 21.72 5.69 21.67 6.06C21.64 6.43 21.6 6.8 21.57 7.17L21.49 8.28L21.43 9.38C21.38 10.85 21.33 12.32 21.28 13.8C21.28 13.96 21.28 14.14 21.27 14.35C21.27 14.56 21.27 14.79 21.27 15.04C21.27 15.53 21.27 16.08 21.26 16.61C21.25 16.87 21.24 17.13 21.23 17.38C21.23 17.5 21.21 17.62 21.2 17.74C21.19 17.85 21.18 17.96 21.17 18.07C21.15 18.17 21.14 18.27 21.13 18.36L21.1 18.49C21.1 18.49 21.08 18.57 21.07 18.61C21.06 18.65 21.05 18.68 21.04 18.72C21.03 18.75 21.02 18.79 21 18.82C20.99 18.85 20.97 18.88 20.96 18.9L20.92 18.97H20.93L20.94 18.99V19.01V19.04C20.94 19.04 20.94 19.04 20.94 19.05H20.93L20.89 19L20.86 19.03L20.83 19.05L20.8 19.07H20.77C20.53 19.13 20.3 19.18 20.06 19.23C19.83 19.28 19.6 19.32 19.37 19.36L18.68 19.5L18.33 19.58L17.98 19.67C17.59 19.78 17.21 19.89 16.83 20L16.26 20.16L15.69 20.3L15.12 20.42L14.54 20.52L14.25 20.56L13.96 20.59L13.67 20.61H13.38H13.06H12.74L12.1 20.55L10.82 20.4L9.53 20.25L8.89 20.2H8.57L8.25 20.18H7.7L7.15 20.22L6.05 20.31C5.32 20.38 4.59 20.46 3.85 20.53L3.59 20.55H3.33H3.07L2.81 20.52L2.56 20.48L2.31 20.42L2.19 20.38L2.07 20.34L1.95 20.29L1.84 20.24C1.84 20.24 1.84 20.24 1.83 20.24H1.82L1.79 20.2C1.77 20.17 1.74 20.14 1.71 20.1C1.68 20.06 1.65 20.01 1.62 19.96C1.59 19.91 1.55 19.85 1.51 19.78C1.44 19.65 1.36 19.5 1.27 19.34C1.19 19.17 1.1 19 1.01 18.81C0.93 18.62 0.84 18.43 0.76 18.25L0.64 17.97C0.6 17.88 0.57 17.78 0.54 17.69C0.51 17.6 0.48 17.51 0.45 17.43C0.43 17.34 0.4 17.26 0.38 17.18C0.36 17.1 0.35 17.03 0.33 16.96L0.31 16.86V16.77L0.27 16.2V15.63L0.29 15.07L0.33 14.51L0.38 13.95L0.45 13.39L0.61 12.27L0.97 10.02L1.12 8.9L1.18 8.34L1.23 7.78V7.63V7.47C1.23 7.37 1.22 7.26 1.21 7.15C1.2 7.04 1.18 6.93 1.17 6.82C1.15 6.71 1.13 6.59 1.11 6.47C1.09 6.35 1.06 6.24 1.04 6.12L0.96 5.76C0.9 5.52 0.83 5.27 0.76 5.03C0.62 4.54 0.48 4.05 0.34 3.59C0.28 3.36 0.22 3.13 0.16 2.91C0.14 2.8 0.11 2.69 0.09 2.59C0.07 2.49 0.05 2.38 0.04 2.29V2.27V2.25V2.21L0.06 2.17L0.08 2.12L0.11 2.07L0.15 2.02C0.15 2.02 0.21 1.95 0.24 1.92C0.28 1.89 0.31 1.85 0.35 1.81C0.39 1.78 0.43 1.74 0.48 1.7C0.57 1.63 0.67 1.55 0.77 1.48C0.98 1.33 1.2 1.18 1.39 1.04C1.49 0.97 1.58 0.9 1.66 0.84C1.7 0.81 1.73 0.78 1.77 0.75C1.8 0.72 1.83 0.69 1.86 0.67L2.1 0.71L2.34 0.74L2.58 0.76H2.82L3.06 0.78H3.3L3.78 0.75L4.26 0.7L4.74 0.64C5.06 0.59 5.39 0.54 5.71 0.48L6.37 0.37L7.02 0.28L7.67 0.2L8.32 0.14L8.97 0.1L9.62 0.08H10.27L10.92 0.1H11.16L11.4 0.11H11.87L12.8 0.03L13.27 0H13.74H13.98L14.22 0.02L14.46 0.05L14.7 0.09L15.11 0.17L15.51 0.26C15.77 0.32 16.03 0.39 16.29 0.45L16.68 0.54L17.07 0.62L17.46 0.68L17.66 0.7H17.86L18.36 0.75L18.86 0.8L19.85 0.91L20.84 1.01L21.33 1.05L21.83 1.07H21.95H22.07H22.19L22.31 1.04L22.55 0.99L22.79 0.92L23.26 0.77L23.5 0.7L23.75 0.63C23.75 0.63 23.75 0.63 23.76 0.63H23.78H23.8H23.82L23.86 0.65L23.9 0.68L23.94 0.72L23.98 0.76C23.98 0.76 24.04 0.83 24.07 0.87C24.1 0.91 24.13 0.96 24.16 1.01C24.19 1.06 24.22 1.11 24.25 1.17C24.28 1.23 24.31 1.29 24.34 1.35L24.43 1.54L24.52 1.74L24.6 1.94L24.67 2.14L24.73 2.34C24.75 2.41 24.77 2.47 24.78 2.53C24.79 2.59 24.81 2.65 24.82 2.71C24.82 2.77 24.84 2.82 24.84 2.87V2.94V3.01L24.81 3.54L24.75 4.06L24.67 4.58L24.58 5.1L24.14 7.16L24.04 7.68L23.95 8.2L23.88 8.72L23.83 9.25L23.81 9.78V10.05V10.32L23.83 10.59L23.86 10.86L23.9 11.13L23.95 11.41L23.98 11.55L24.02 11.69L24.1 11.96L24.2 12.22L24.3 12.48L24.51 12.99L24.6 13.25L24.68 13.52L24.75 13.86L24.81 14.2L24.85 14.53L24.88 14.86L24.9 15.19V15.52V16.18L24.86 16.84L24.81 17.5L24.71 18.83V18.88L24.7 18.93C24.69 18.97 24.68 19 24.67 19.05C24.65 19.09 24.64 19.13 24.62 19.18C24.6 19.22 24.58 19.27 24.55 19.32C24.52 19.37 24.5 19.42 24.47 19.47C24.44 19.52 24.41 19.58 24.37 19.63C24.3 19.74 24.22 19.86 24.14 19.99C24.05 20.11 23.96 20.24 23.86 20.37C23.76 20.5 23.65 20.63 23.54 20.77C23.43 20.9 23.31 21.04 23.2 21.18L22.84 21.59L22.46 21.99C22.33 22.12 22.2 22.24 22.08 22.36C21.95 22.48 21.83 22.59 21.71 22.7C21.58 22.81 21.46 22.91 21.35 23C21.29 23.05 21.23 23.09 21.18 23.13C21.12 23.17 21.07 23.21 21.01 23.25C20.95 23.29 20.9 23.32 20.85 23.35C20.8 23.38 20.75 23.41 20.7 23.44C20.65 23.47 20.6 23.49 20.56 23.51C20.51 23.53 20.47 23.55 20.43 23.56L20.37 23.58H20.31L20.26 23.6H20.21C19.28 23.6 14.48 23.63 13.02 23.64L12.55 23.53L12.08 23.44L11.61 23.37L11.14 23.31L10.67 23.27L10.2 23.24L9.72 23.22H9.24H8.29L7.34 23.26C6.7 23.3 6.07 23.33 5.44 23.37L5.53 23.4Z"></path></svg>