<svg xmlns="http://www.w3.org/2000/svg" width="30" viewBox="0 0 17.88 26.13"><g fill="#e8e4da"><path d="M13.58,0s-.65,1.4-2.12,2.69c-.72,1.8-1.25,3.12-1.1,4.56,.59,1.29,1.52,3.38,3.5,4.68,1.05,2.04,2.09,4.07,3.07,6.18-.11,2.28-.19,3.83-1.15,5.13-.85,1.27-2.24,2.47-2.18,2.79,.24,.16,.7,.1,1.03,.04,.16-.24-.11-.31-.1-.36,0,0,.19,.26,.11,.34-.09,.09,2.37-1.91,3.06-3.74,.2-1.77,.46-4.06-.67-6.12-.9-2.05-1.93-4.36-3.96-5.86-1.26-2.2-1.55-2.69-1.56-3.28-.07-.56-.41-3.08,1.83-4.83,1.14-2.02,.97-1.68,1.01-1.73,0,0,.24-.28,.28-.37,0-.09-.36-.09-.49-.06"></path><path d="M8.57,0s-.65,1.4-2.12,2.69c-.72,1.8-1.25,3.12-1.09,4.56,.59,1.29,1.52,3.38,3.5,4.68,1.05,2.04,2.09,4.07,3.07,6.18-.11,2.28-.19,3.83-1.15,5.13-.85,1.27-2.24,2.47-2.18,2.79,.24,.16,.7,.1,1.03,.04,.16-.24-.11-.31-.1-.36,0,0,.2,.26,.11,.34-.09,.09,2.37-1.91,3.06-3.74,.2-1.77,.46-4.06-.67-6.12-.9-2.05-1.93-4.36-3.96-5.86-1.26-2.2-1.54-2.69-1.56-3.28-.07-.56-.41-3.08,1.83-4.83,1.14-2.02,.97-1.68,1.01-1.73,0,0,.24-.28,.28-.37,0-.09-.36-.09-.48-.06"></path><path d="M3.24,0s-.65,1.41-2.12,2.69C.4,4.49-.13,5.81,.03,7.25c.59,1.29,1.52,3.39,3.5,4.69,1.05,2.04,2.09,4.07,3.07,6.17-.11,2.28-.19,3.83-1.15,5.13-.85,1.27-2.24,2.47-2.18,2.79,.24,.16,.7,.1,1.03,.04,.16-.24-.11-.31-.1-.35,0,0,.2,.26,.1,.34-.09,.09,2.37-1.91,3.06-3.74,.2-1.77,.46-4.06-.66-6.12-.9-2.05-1.93-4.36-3.96-5.86-1.26-2.2-1.55-2.69-1.56-3.28-.07-.56-.41-3.08,1.83-4.83C4.15,.21,3.98,.55,4.02,.5c0,0,.24-.28,.28-.37,0-.09-.36-.09-.48-.06"></path></g></svg>