<svg xmlns="http://www.w3.org/2000/svg" height="30" viewBox="0 0 26.07 18.39"><g fill="#e8e4da"><path d="m26.07 14.1s-1.4-.65-2.68-2.12c-1.8-.72-3.11-1.25-4.55-1.1-1.29.59-3.37 1.52-4.67 3.5-2.04 1.05-4.06 2.09-6.17 3.07-2.27-.11-3.82-.19-5.12-1.15-1.26-.85-2.46-2.24-2.78-2.18-.16.24-.1.7-.04 1.03.24.16.31-.11.36-.1 0 0-.26.19-.34.11-.09-.09 1.91 2.37 3.73 3.06 1.77.2 4.05.46 6.11-.67 2.05-.9 4.35-1.93 5.85-3.96 2.19-1.26 2.68-1.55 3.27-1.56.56-.07 3.07-.41 4.82 1.83 2.02 1.14 1.68.97 1.73 1.01 0 0 .28.24.37.28.09 0 .09-.36.06-.49"></path><path d="m26.07 8.54s-1.4-.65-2.68-2.12c-1.8-.72-3.11-1.25-4.55-1.09-1.29.59-3.37 1.52-4.67 3.5-2.04 1.05-4.06 2.09-6.17 3.07-2.27-.11-3.82-.19-5.12-1.15-1.26-.85-2.46-2.24-2.78-2.18-.16.24-.1.7-.04 1.03.24.16.31-.11.36-.1 0 0-.26.2-.34.11-.09-.09 1.91 2.37 3.73 3.06 1.77.2 4.05.46 6.11-.67 2.05-.9 4.35-1.93 5.85-3.96 2.19-1.26 2.68-1.54 3.27-1.56.56-.07 3.07-.41 4.82 1.83 2.02 1.14 1.68.97 1.73 1.01 0 0 .28.24.37.28.09 0 .09-.36.06-.48"></path><path d="m26.07 3.24s-1.41-.65-2.68-2.12c-1.8-.72-3.11-1.25-4.55-1.09-1.29.59-3.38 1.52-4.68 3.5-2.04 1.05-4.06 2.09-6.16 3.07-2.27-.11-3.82-.19-5.12-1.15-1.26-.85-2.46-2.24-2.78-2.18-.16.24-.1.7-.04 1.03.24.16.31-.11.35-.1 0 0-.26.2-.34.1-.09-.09 1.91 2.37 3.73 3.06 1.77.2 4.05.46 6.11-.66 2.05-.9 4.35-1.93 5.85-3.96 2.19-1.26 2.68-1.55 3.27-1.56.56-.07 3.07-.41 4.82 1.83 2.02 1.14 1.68.97 1.73 1.01 0 0 .28.24.37.28.09 0 .09-.36.06-.48"></path></g></svg>